. 
  
http://www.torrenting.com/        :     Greatest Movie Tracker on The Net!!!
 
http://www.Torrenting.com          :     Once & For all ;)


               www . Torrenting . Com 

(((((((((((((= Enjoy No RAR releases =))))))))))))))))))))


...................................NFO:....................................

.[img]http://img638.imageshack.us/img638/5852/respire.jpg[/img]

[color=blue][size=5][b]Respire.2011.DVDRip.XVID.AC3.HQ.Hive-CM8[/b][/size][/color]


[b]Thx Hive


CM8 Doing It Right The First Time :D


Source R1 DVD

Video: 720x400 @bitrate 2000 2pass
Audio: English AC3 5.1 @448
Sample: yes included[/b]


[url]http://www.imdb.com/title/tt1458503/[/url]


General
Complete name                    : Respire.2011.DVDRip.XVID.AC3.HQ.Hive-CM8.avi
Format                           : AVI
Format/Info                      : Audio Video Interleave
File size                        : 1.57 GiB
Duration                         : 1h 31mn
Overall bit rate                 : 2 457 Kbps
Writing application              : Nandub v1.0rc2
Writing library                  : Nandub build 1853/release

Video
ID                               : 0
Format                           : MPEG-4 Visual
Format profile                   : Advanced Simple@L5
Format settings, BVOP            : Yes
Format settings, QPel            : Yes
Format settings, GMC             : No warppoints
Format settings, Matrix          : Default (H.263)
Muxing mode                      : Packed bitstream
Codec ID                         : XVID
Codec ID/Hint                    : XviD
Duration                         : 1h 31mn
Bit rate                         : 1 999 Kbps
Width                            : 720 pixels
Height                           : 400 pixels
Display aspect ratio             : 16:9
Frame rate                       : 23.976 fps
Color space                      : YUV
Chroma subsampling               : 4:2:0
Bit depth                        : 8 bits
Scan type                        : Progressive
Bits/(Pixel*Frame)               : 0.290
Stream size                      : 1.28 GiB (81%)
Writing library                  : XviD 1.2.1 (UTC 2008-12-04)

Audio
ID                               : 1
Format                           : AC-3
Format/Info                      : Audio Coding 3
Mode extension                   : CM (complete main)
Codec ID                         : 2000
Duration                         : 1h 31mn
Bit rate mode                    : Constant
Bit rate                         : 448 Kbps
Channel(s)                       : 6 channels
Channel positions                : Front: L C R, Side: L R, LFE
Sampling rate                    : 48.0 KHz
Bit depth                        : 16 bits
Stream size                      : 293 MiB (18%)
Alignment                        : Split accross interleaves
Interleave, duration             : 42 ms (1.00 video frame)
Interleave, preload duration     : 500 ms


Tracy Teague	 ... 	Susan Jordan
Mathew J. Wright	... 	Raif Collins
Vince Eustace	... 	Alex Poe
Jessica Keeler	... 	Nina Carver
Ellie Torrez	... 	Ruby Wilkins 


The Ancient Romans believed that the soul escaped one's body with the last breath.  
It was believed that last breath held the power to cure disease and prolong life.  
In 1930's, Dr. Robert Kaminsky devoted his life to finding out how to harness the 
power in the last breath. Susan Jordan owns a local novelty shop.  One item in her shop, 
an antique box once owned by Doctor Kaminsky, draws the interest of two men: Raif Collins 
who hopes it's contents can save his dying sister, and Alex Poe whose motives are more mysterious.  
Susan quickly finds herself in a perilous struggle to protect the box and the secrets that it holds. 
 

[img]http://img28.imageshack.us/img28/8479/22676417.png[/img]
[img]http://img541.imageshack.us/img541/9459/rerej.png[/img]
[img]http://img846.imageshack.us/img846/2724/rreere.png[/img]
[img]http://img600.imageshack.us/img600/2845/rreerere.png[/img]
[img]http://img576.imageshack.us/img576/2466/rrereerere.png[/img]
[img]http://img852.imageshack.us/img852/7950/rrerereerere.png[/img]
[img]http://img845.imageshack.us/img845/9089/rrererreeerere.png[/img]




ViSiON,LUSi,SANTi,MAGNET,THC,T0XiCiNK,LKRG,IMAGiNE,WBZ,FLAWL3SS,NOVA
Vik,Rapeseed,D2U,SAFC,goldadvance,MEMORY100,KaN1vE,Unevano,Pinnz,Wayne,Mr Hive
and all P2P groups 
Great Work Guys :D

CM8@hushmail.com